# xmcd CD database file
#
# Track frame offsets:
#	150
#	15363
#	29349
#	45852
#	68404
#	82527
#	94988
#	109696
#	125307
#	139847
#	156005
#	169965
#	187328
#	202783
#	215878
#
# Disc length: 3108 seconds
#
# Revision: 0
# Processed by: cddbd v1.5.1PL2 Copyright (c) Steve Scherf et al.
# Submitted via: CDex 1.70beta2
#
DISCID=bd0c220f
DTITLE=Scott Joplin - Centurion Jazz
DYEAR=2004
DGENRE=Jazz
TTITLE0=01 Leola
TTITLE1=02 Maple Leaf Rag
TTITLE2=03 Paragon Rag
TTITLE3=04 Pineapple Rag
TTITLE4=05 Sun Flower Slow Drag
TTITLE5=06 Something Doing
TTITLE6=07 Cleopha
TTITLE7=08 Heliotope Bouquet
TTITLE8=09 Elite Singcopations
TTITLE9=10 Eugenia
TTITLE10=11 The Entertainer
TTITLE11=12 Aereal Slow rag
TTITLE12=13 Lily Queen
TTITLE13=14 Euphonic Sounds
TTITLE14=15 The Christanthenum
EXTD=YEAR: 2004
EXTT0=
EXTT1=
EXTT2=
EXTT3=
EXTT4=
EXTT5=
EXTT6=
EXTT7=
EXTT8=
EXTT9=
EXTT10=
EXTT11=
EXTT12=
EXTT13=
EXTT14=
PLAYORDER=
